# xmcd
#
# Track frame offsets:
#	150
#	25790
#	45740
#	60351
#	83427
#	105446
#	124544
#	141644
#	157964
#	183001
#	204155
#	220694
#	245744
#	264130
#	283390
#	301696
#	326828
#
# Disc length: 4652 seconds
#
# Revision: 1
# Processed by: cddbd v1.5.2PL0 Copyright (c) Steve Scherf et al.
# Submitted via: EasyCDDAExtractor 12.0.7.1
#
DISCID=de122a11
DTITLE=Григорий Лепс - Аллея шансона
DYEAR=2011
DGENRE=Chanson
TTITLE0=Ну и что
TTITLE1=Рюмка водки на столе
TTITLE2=Я тебя не люблю
TTITLE3=Лабиринт
TTITLE4=Натали
TTITLE5=Крыса - ревность
TTITLE6=Танго разбитых сердец
TTITLE7=Боже, как долго
TTITLE8=Я слушал дождь
TTITLE9=Вьюга
TTITLE10=Она не твоя (дуэт со Стасом Пьехой)
TTITLE11=В городе дождь
TTITLE12=Шелест
TTITLE13=Раздумья мои
TTITLE14=Я тебе не верю (дуэт с Ириной Аллегровой)
TTITLE15=Спокойной ночи, господа
TTITLE16=Ангел завтрашнего дня (дуэт с Ириной Аллегровой)
EXTD=
EXTT0=
EXTT1=
EXTT2=
EXTT3=
EXTT4=
EXTT5=
EXTT6=
EXTT7=
EXTT8=
EXTT9=
EXTT10=
EXTT11=
EXTT12=
EXTT13=
EXTT14=
EXTT15=
EXTT16=
PLAYORDER=
